<svg width="20" height="20" viewBox="0 0 20 20" fill="none" xmlns="http://www.w3.org/2000/svg">
<g id="Frame 3675534">
<g id="Vector">
<path d="M3.95771 10.6391C3.25817 11.1446 3.12679 12.0879 3.66427 12.7459C4.20175 13.4039 5.20455 13.5274 5.9041 13.0219L10.9706 9.36029C11.6702 8.85473 11.8015 7.91149 11.2641 7.25349C10.7266 6.59549 9.72378 6.47192 9.02424 6.97747L3.95771 10.6391Z" fill="#3A3A3C"/>
<path d="M14.0978 13.0171C14.798 13.5218 15.8007 13.397 16.3373 12.7384C16.8739 12.0798 16.7412 11.1367 16.041 10.632L10.9696 6.97639C10.2694 6.47166 9.26672 6.59643 8.73013 7.25506C8.19353 7.91369 8.32618 8.85679 9.02639 9.36152L14.0978 13.0171Z" fill="#3A3A3C"/>
</g>
</g>
</svg>
