<svg width="16" height="16" viewBox="0 0 16 16" fill="none" xmlns="http://www.w3.org/2000/svg">
<g id="logout-box-r-fill 1" clip-path="url(#clip0_224_1433)">
<path id="Vector" d="M3.33268 14.6663C3.15587 14.6663 2.9863 14.5961 2.86128 14.4711C2.73625 14.3461 2.66602 14.1765 2.66602 13.9997V1.99967C2.66602 1.82286 2.73625 1.65329 2.86128 1.52827C2.9863 1.40325 3.15587 1.33301 3.33268 1.33301H12.666C12.8428 1.33301 13.0124 1.40325 13.1374 1.52827C13.2624 1.65329 13.3327 1.82286 13.3327 1.99967V13.9997C13.3327 14.1765 13.2624 14.3461 13.1374 14.4711C13.0124 14.5961 12.8428 14.6663 12.666 14.6663H3.33268ZM9.99935 10.6663L13.3327 7.99967L9.99935 5.33301V7.33301H5.99935V8.66634H9.99935V10.6663Z" fill="white"/>
</g>
<defs>
<clipPath id="clip0_224_1433">
<rect width="16" height="16" fill="white"/>
</clipPath>
</defs>
</svg>
