<svg width="185" height="185" viewBox="0 0 185 185" fill="none" xmlns="http://www.w3.org/2000/svg">
<path d="M90.2805 149.877C122.182 149.877 148.044 124.299 148.044 92.7483C148.044 61.1972 122.182 35.62 90.2805 35.62C58.3786 35.62 32.517 61.1972 32.517 92.7483C32.517 124.299 58.3786 149.877 90.2805 149.877Z" fill="url(#paint0_linear_188_115)"/>
<path fill-rule="evenodd" clip-rule="evenodd" d="M140.118 129.165C140.645 128.98 141.199 128.733 141.626 128.376C142.133 127.952 142.339 127.406 142.478 126.832C142.656 126.093 142.727 125.307 142.943 124.567C143.023 124.292 143.176 124.188 143.242 124.142C143.409 124.026 143.577 123.995 143.736 124.007C143.924 124.02 144.182 124.09 144.352 124.402C144.376 124.446 144.407 124.514 144.428 124.607C144.444 124.676 144.454 124.889 144.47 124.977C144.511 125.193 144.545 125.41 144.577 125.628C144.684 126.353 144.745 126.969 145.083 127.635C145.54 128.539 145.999 129.092 146.621 129.337C147.223 129.574 147.942 129.529 148.86 129.344C148.948 129.323 149.034 129.305 149.12 129.29C149.525 129.22 149.912 129.483 149.992 129.882C150.071 130.281 149.814 130.67 149.412 130.757C149.329 130.776 149.246 130.793 149.164 130.809C147.923 131.113 146.486 132.198 145.65 133.148C145.393 133.441 145.016 134.259 144.631 134.782C144.348 135.167 144.029 135.421 143.761 135.511C143.582 135.571 143.43 135.562 143.305 135.532C143.124 135.487 142.973 135.39 142.858 135.235C142.795 135.151 142.736 135.037 142.709 134.893C142.695 134.823 142.694 134.646 142.694 134.566C142.616 134.299 142.52 134.039 142.45 133.77C142.283 133.128 141.956 132.722 141.568 132.185C141.204 131.682 140.814 131.367 140.242 131.115C140.168 131.097 139.567 130.952 139.355 130.868C139.045 130.746 138.898 130.541 138.844 130.43C138.753 130.243 138.744 130.079 138.762 129.943C138.789 129.742 138.88 129.569 139.042 129.43C139.143 129.344 139.293 129.26 139.494 129.219C139.649 129.187 140.061 129.168 140.118 129.165ZM143.641 128.119C143.669 128.181 143.699 128.242 143.73 128.305C144.401 129.629 145.15 130.368 146.061 130.727L146.092 130.739C145.482 131.186 144.931 131.686 144.509 132.166C144.335 132.363 144.105 132.774 143.857 133.194C143.631 132.469 143.262 131.956 142.798 131.314C142.444 130.824 142.072 130.456 141.615 130.155C141.97 129.976 142.308 129.765 142.602 129.519C143.092 129.109 143.416 128.635 143.641 128.119Z" fill="#1749B3"/>
<ellipse cx="24.7656" cy="81.6159" rx="2.73572" ry="2.70564" fill="#1749B3"/>
<path d="M48.4213 57.3705C48.504 57.6573 48.8067 57.8224 49.0963 57.7386C49.3837 57.655 49.5514 57.3539 49.4664 57.0671L48.4213 57.3705ZM48.4213 57.3705L48.1795 57.4403C48.3014 57.8629 48.7453 58.1022 49.1663 57.9803L49.1666 57.9802C49.5854 57.8584 49.8328 57.4187 49.7078 56.9959C48.905 54.2587 47.3176 52.1128 44.8945 50.5655C44.5261 50.3301 44.0331 50.4357 43.7964 50.8045C43.5569 51.1741 43.6666 51.6653 44.0357 51.9012L44.0358 51.9012C46.126 53.2353 47.4868 55.0781 48.1798 57.4414L48.4213 57.3705Z" fill="#011625" stroke="#011625" stroke-width="0.503333"/>
<path d="M74.0008 58.2764L74.001 58.2764C74.547 58.0004 74.7434 57.4723 74.6934 56.908C74.6494 56.3923 74.3747 55.8172 74.226 55.5559C74.226 55.5558 74.226 55.5558 74.2259 55.5557L74.0072 55.6802L74.0008 58.2764ZM74.0008 58.2764C73.3664 58.5966 72.8254 58.5755 72.3933 58.3614C71.9811 58.1577 71.6798 57.7682 71.4966 57.2849L71.4965 57.2849M74.0008 58.2764L71.4965 57.2849M71.4965 57.2849C71.322 56.8239 71.2524 56.257 71.2451 55.7213C71.2386 55.2438 71.2815 54.7744 71.3534 54.4017C70.9392 53.9878 70.4886 53.6101 70.0083 53.2715C66.1983 50.5859 60.5502 51.5457 56.1551 55.6497C55.4226 56.3339 54.8629 57.4132 54.4377 58.7533C54.0139 60.0892 53.7316 61.659 53.5376 63.2988L53.5376 63.2988M71.4965 57.2849L53.5376 63.2988M53.5376 63.2988C53.0118 67.7399 53.2039 72.6334 53.2947 74.9458C53.3083 75.2927 53.3196 75.5815 53.3259 75.802L53.3259 75.8026M53.5376 63.2988L53.3259 75.8026M53.3259 75.8026C53.3316 76.0188 53.3243 76.194 53.3121 76.3245C53.3061 76.3896 53.2986 76.4452 53.2905 76.4903C53.2839 76.527 53.2735 76.5766 53.2555 76.6183M53.3259 75.8026L53.2555 76.6183M37.6697 51.0356C37.8679 50.8121 38.2119 50.7917 38.4383 50.9901M37.6697 51.0356C37.4694 51.2591 37.4912 51.6018 37.7155 51.8C42.2943 55.8436 45.154 61.3194 47.9454 66.6643C48.2029 67.1574 48.4598 67.6494 48.7175 68.1391L38.4383 50.9901M37.6697 51.0356L37.4814 50.8687C37.4816 50.8685 37.4817 50.8683 37.4819 50.8681C37.482 50.868 37.4822 50.8678 37.4823 50.8676L37.6697 51.0356ZM38.4383 50.9901C43.1481 55.1483 46.093 60.7782 48.9658 66.2703M38.4383 50.9901L48.9658 66.2703M53.2555 76.6183C53.2557 76.6179 53.2559 76.6175 53.256 76.6171L53.0243 76.519L53.2544 76.6209C53.2548 76.62 53.2551 76.6192 53.2555 76.6183ZM51.5977 71.0295C51.5735 68.3233 51.6576 64.9733 52.1113 61.9531C52.3481 60.3759 52.6929 58.8825 53.1726 57.6007C53.6514 56.3214 54.2708 55.236 55.0668 54.4923L55.0669 54.4923C59.9972 49.8885 66.485 48.8437 70.9276 51.9766L70.9277 51.9767C71.3123 52.2481 71.6823 52.5418 72.033 52.8567C74.4167 48.8899 79.267 47.3344 83.5607 49.2841C83.5608 49.2841 83.5608 49.2841 83.5609 49.2842L51.5977 71.0295ZM51.5977 71.0295C51.686 71.2352 51.7724 71.4419 51.8569 71.6496C51.8607 71.8959 51.8652 72.1358 51.8703 72.3685L51.5977 71.0295ZM51.5977 71.0295C51.5998 71.2581 51.6026 71.482 51.606 71.7008L51.5977 71.0295ZM73.0894 56.9367C73.0858 56.9361 73.0866 56.937 73.0947 56.9358L73.0894 56.9367ZM73.0894 56.9367C73.0905 56.9413 73.0916 56.946 73.0926 56.9506C73.0929 56.9524 73.0933 56.9543 73.0936 56.9565C73.0938 56.9572 73.0939 56.9581 73.094 56.9589C73.0962 56.9731 73.0985 56.9949 73.1 57.0225C73.1019 57.0546 73.1023 57.0856 73.1023 57.105L73.0894 56.9367ZM48.9658 66.2703C49.2047 66.7271 49.4432 67.1829 49.6821 67.6368L48.9658 66.2703ZM72.986 56.7243L72.9862 56.7246C73.0155 56.8018 73.0384 56.8554 73.0624 56.8947C73.0728 56.9116 73.0812 56.9223 73.0876 56.9291C73.0482 56.764 72.9734 56.5925 72.9069 56.461C72.9289 56.5547 72.9551 56.6432 72.986 56.7243Z" fill="#011625" stroke="#011625" stroke-width="0.503333"/>
<rect x="63.6212" y="65.2598" width="99.4368" height="35.4515" rx="12.08" fill="#011625"/>
<rect x="104.668" y="77.4644" width="33.531" height="4.64938" rx="2.32469" fill="#CCC6D9"/>
<rect x="72.2932" y="84.4384" width="66.0747" height="4.64938" rx="2.32469" fill="white"/>
<ellipse cx="150.339" cy="83.2761" rx="5.78121" ry="5.81173" fill="#E1DCEB"/>
<rect x="22.0299" y="94.8996" width="99.4368" height="35.4515" rx="12.08" fill="#E1DCEB"/>
<rect x="46.8892" y="107.104" width="33.531" height="4.64938" rx="2.32469" fill="#FE0000"/>
<rect x="46.8892" y="114.078" width="66.0747" height="4.64938" rx="2.32469" fill="white"/>
<ellipse cx="36.483" cy="112.916" rx="5.78121" ry="5.81173" fill="#FE0000"/>
<defs>
<linearGradient id="paint0_linear_188_115" x1="89.8352" y1="17.0176" x2="90.9926" y2="217.644" gradientUnits="userSpaceOnUse">
<stop stop-color="#E9E6E6"/>
<stop offset="0.276042" stop-color="#F7F7F7"/>
</linearGradient>
</defs>
</svg>
